<svg id="visual" viewBox="0 0 540 960" width="540" height="960" xmlns="http://www.w3.org/2000/svg" xmlns:xlink="http://www.w3.org/1999/xlink" version="1.1"><rect x="0" y="0" width="540" height="960" fill="#274BC6"></rect><defs><linearGradient id="grad1_0" x1="0%" y1="0%" x2="100%" y2="100%"><stop offset="30%" stop-color="#0c34b3" stop-opacity="1"></stop><stop offset="70%" stop-color="#0c34b3" stop-opacity="1"></stop></linearGradient></defs><defs><linearGradient id="grad1_1" x1="0%" y1="0%" x2="100%" y2="100%"><stop offset="30%" stop-color="#0c34b3" stop-opacity="1"></stop><stop offset="70%" stop-color="#173cb9" stop-opacity="1"></stop></linearGradient></defs><defs><linearGradient id="grad1_2" x1="0%" y1="0%" x2="100%" y2="100%"><stop offset="30%" stop-color="#1f43c0" stop-opacity="1"></stop><stop offset="70%" stop-color="#173cb9" stop-opacity="1"></stop></linearGradient></defs><defs><linearGradient id="grad1_3" x1="0%" y1="0%" x2="100%" y2="100%"><stop offset="30%" stop-color="#1f43c0" stop-opacity="1"></stop><stop offset="70%" stop-color="#274bc6" stop-opacity="1"></stop></linearGradient></defs><defs><linearGradient id="grad2_0" x1="0%" y1="0%" x2="100%" y2="100%"><stop offset="30%" stop-color="#0c34b3" stop-opacity="1"></stop><stop offset="70%" stop-color="#0c34b3" stop-opacity="1"></stop></linearGradient></defs><defs><linearGradient id="grad2_1" x1="0%" y1="0%" x2="100%" y2="100%"><stop offset="30%" stop-color="#173cb9" stop-opacity="1"></stop><stop offset="70%" stop-color="#0c34b3" stop-opacity="1"></stop></linearGradient></defs><defs><linearGradient id="grad2_2" x1="0%" y1="0%" x2="100%" y2="100%"><stop offset="30%" stop-color="#173cb9" stop-opacity="1"></stop><stop offset="70%" stop-color="#1f43c0" stop-opacity="1"></stop></linearGradient></defs><defs><linearGradient id="grad2_3" x1="0%" y1="0%" x2="100%" y2="100%"><stop offset="30%" stop-color="#274bc6" stop-opacity="1"></stop><stop offset="70%" stop-color="#1f43c0" stop-opacity="1"></stop></linearGradient></defs><g transform="translate(540, 0)"><path d="M0 540C-68.5 526.4 -136.9 512.8 -202.4 488.7C-267.9 464.6 -330.5 430 -381.8 381.8C-433.2 333.7 -473.5 272.1 -498 206.3C-522.5 140.4 -531.2 70.2 -540 0L0 0Z" fill="#2347c3"></path><path d="M0 405C-51.4 394.8 -102.7 384.6 -151.8 366.5C-201 348.5 -247.8 322.5 -286.4 286.4C-324.9 250.3 -355.1 204.1 -373.5 154.7C-391.9 105.3 -398.4 52.6 -405 0L0 0Z" fill="#1b40bd"></path><path d="M0 270C-34.2 263.2 -68.5 256.4 -101.2 244.4C-134 232.3 -165.2 215 -190.9 190.9C-216.6 166.9 -236.7 136.1 -249 103.1C-261.2 70.2 -265.6 35.1 -270 0L0 0Z" fill="#1238b6"></path><path d="M0 135C-17.1 131.6 -34.2 128.2 -50.6 122.2C-67 116.2 -82.6 107.5 -95.5 95.5C-108.3 83.4 -118.4 68 -124.5 51.6C-130.6 35.1 -132.8 17.5 -135 0L0 0Z" fill="#0c34b3"></path></g><g transform="translate(0, 960)"><path d="M0 -540C64.1 -517.7 128.3 -495.3 195.9 -473C263.6 -450.7 334.8 -428.5 381.8 -381.8C428.8 -335.2 451.6 -264 474 -196.3C496.3 -128.6 518.1 -64.3 540 0L0 0Z" fill="#2347c3"></path><path d="M0 -405C48.1 -388.2 96.2 -371.5 147 -354.8C197.7 -338.1 251.1 -321.4 286.4 -286.4C321.6 -251.4 338.7 -198 355.5 -147.2C372.2 -96.5 388.6 -48.2 405 0L0 0Z" fill="#1b40bd"></path><path d="M0 -270C32.1 -258.8 64.1 -247.7 98 -236.5C131.8 -225.4 167.4 -214.3 190.9 -190.9C214.4 -167.6 225.8 -132 237 -98.2C248.1 -64.3 259.1 -32.2 270 0L0 0Z" fill="#1238b6"></path><path d="M0 -135C16 -129.4 32.1 -123.8 49 -118.3C65.9 -112.7 83.7 -107.1 95.5 -95.5C107.2 -83.8 112.9 -66 118.5 -49.1C124.1 -32.2 129.5 -16.1 135 0L0 0Z" fill="#0c34b3"></path></g></svg>