<svg id="visual" viewBox="0 0 540 960" width="540" height="960" xmlns="http://www.w3.org/2000/svg" xmlns:xlink="http://www.w3.org/1999/xlink" version="1.1"><rect x="0" y="0" width="540" height="960" fill="#272AA8"></rect><path d="M0 203L45 199.3C90 195.7 180 188.3 270 188C360 187.7 450 194.3 495 197.7L540 201L540 961L495 961C450 961 360 961 270 961C180 961 90 961 45 961L0 961Z" fill="#fefefe"></path><path d="M0 384L45 392.3C90 400.7 180 417.3 270 414C360 410.7 450 387.3 495 375.7L540 364L540 961L495 961C450 961 360 961 270 961C180 961 90 961 45 961L0 961Z" fill="#fefefe"></path><path d="M0 598L45 595.7C90 593.3 180 588.7 270 590C360 591.3 450 598.7 495 602.3L540 606L540 961L495 961C450 961 360 961 270 961C180 961 90 961 45 961L0 961Z" fill="#f8f8f8"></path><path d="M0 766L45 764.7C90 763.3 180 760.7 270 763.7C360 766.7 450 775.3 495 779.7L540 784L540 961L495 961C450 961 360 961 270 961C180 961 90 961 45 961L0 961Z" fill="#ededed"></path></svg>